#!OML:ASF F:\VICON\USERDATA\INSTALL\rory3\rory3.ASF
:FULLY-SPECIFIED
:DEGREES
220
root 0.0481882 25.7061 -1.91907 0.967835 -3.84758 2.86681
lowerback -3.82424 1.77904 0.200471
upperback -4.67862 2.35804 -0.359987
thorax -2.64346 1.16568 -0.447593
lowerneck -11.6504 -1.5196 -5.7544
upperneck 8.70187 -1.74652 5.76081
head 4.61102 -0.695638 2.5944
rclavicle 4.52235e-015 2.78299e-015
rhumerus 8.51967 13.7983 -67.3344
rradius 42.1636
rwrist 17.5777
rhand -19.4881 -0.270405
rfingers 7.12502
rthumb 6.83396 -30.1401
lclavicle 4.52235e-015 2.78299e-015
lhumerus -11.1329 10.0671 65.18
lradius 56.9418
lwrist -6.23168
lhand -25.4531 19.7564
lfingers 7.12502
lthumb 1.07395 49.7335
rfemur 3.44967 7.87026 22.3947
rtibia 44.952
rfoot 30.3569 -16.1342
rtoes 8.89556
lfemur 10.6686 0.543605 -25.5068
ltibia 26.2575
lfoot 32.4649 2.90734
ltoes -3.87236
221
root 0.0464909 25.8647 -1.71484 1.47788 -3.84414 2.16444
lowerback -4.47429 1.73045 0.874896
upperback -4.82188 2.27772 -0.180501
thorax -2.41107 1.10905 -0.622382
lowerneck -11.4 -1.43057 -5.49181
upperneck 8.73157 -1.67218 5.66518
head 4.57132 -0.659769 2.52764
rclavicle -2.33572e-015 3.97569e-015
rhumerus 6.92658 12.8875 -68.0661
rradius 41.7949
rwrist 18.4572
rhand -19.4206 1.00591
rfingers 7.12502
rthumb 6.89911 -28.8617
lclavicle -2.33572e-015 3.97569e-015
lhumerus -13.3821 12.1304 64.622
lradius 54.8518
lwrist -7.16007
lhand -24.5545 20.2183
lfingers 7.12502
lthumb 1.94183 50.1892
rfemur 2.90682 8.1353 23.2062
rtibia 43.5683
rfoot 29.7814 -16.6856
rtoes 8.41178
lfemur 9.70477 0.279616 -24.7649
ltibia 25.5828
lfoot 30.1804 3.94873
ltoes -7.66918
222
root 0.0443086 26.0048 -1.5214 1.73968 -3.68341 1.79339
lowerback -4.69432 1.66425 1.22668
upperback -4.88785 2.17878 -0.132617
thorax -2.34775 1.05013 -0.766378
lowerneck -11.2183 -1.3974 -5.23141
upperneck 8.67618 -1.67239 5.63429
head 4.5219 -0.655674 2.47543
rclavicle 1.06847e-014 -1.59028e-015
rhumerus 5.30347 11.8246 -68.71
rradius 41.4833
rwrist 19.1655
rhand -19.1817 1.15572
rfingers 7.12502
rthumb 7.12975 -28.7042
lclavicle 1.06847e-014 -1.59028e-015
lhumerus -15.4723 13.9497 63.9473
lradius 52.6117
lwrist -7.73279
lhand -24.305 20.6101
lfingers 7.12502
lthumb 2.18281 50.5787
rfemur 2.65725 8.2875 23.6665
rtibia 42.0384
rfoot 28.8927 -17.3846
rtoes 8.03572
lfemur 8.76008 0.0777203 -24.2819
ltibia 25.1965
lfoot 27.5436 4.98209
ltoes -12.1367
223
root 0.04852 26.1315 -1.33147 1.87944 -3.54711 1.72902
lowerback -4.84739 1.63341 1.27089
upperback -4.77841 2.13371 -0.119159
thorax -2.14895 1.02853 -0.771666
lowerneck -11.3344 -1.42054 -5.09314
upperneck 8.62892 -1.71385 5.59036
head 4.52742 -0.672458 2.43572
rclavicle -4.52235e-015 -8.34896e-015
rhumerus 3.87991 10.7763 -69.0169
rradius 41.2495
rwrist 19.4167
rhand -18.5234 0.0238741
rfingers 7.12502
rthumb 7.7652 -29.8135
lclavicle -4.52235e-015 -8.34896e-015
lhumerus -17.3318 15.6733 63.4251
lradius 50.2628
lwrist -7.91832
lhand -24.5148 21.0392
lfingers 7.12502
lthumb 1.9802 51.0097
rfemur 2.49768 8.30972 23.6827
rtibia 40.449
rfoot 28.0748 -17.6568
rtoes 7.68311
lfemur 7.83571 -0.143226 -24.1479
ltibia 24.9636
lfoot 26.1162 5.99628
ltoes -13.6755
224
root 0.058897 26.2497 -1.14977 1.95616 -3.45649 1.44716
lowerback -4.73437 1.57197 1.61351
upperback -4.64407 2.04401 -0.0560883
thorax -2.0659 0.976538 -0.901985
lowerneck -11.463 -1.43819 -5.01526
upperneck 8.43029 -1.74214 5.63417
head 4.48902 -0.679747 2.43353
rclavicle -5.71506e-015 -1.07344e-014
rhumerus 2.61426 10.0087 -69.3113
rradius 40.9047
rwrist 19.3375
rhand -18.6677 -0.622591
rfingers 7.12502
rthumb 7.62592 -30.4651
lclavicle -5.71506e-015 -1.07344e-014
lhumerus -19.1798 17.3991 62.6867
lradius 47.8035
lwrist -7.87059
lhand -24.536 21.5804
lfingers 7.12502
lthumb 1.95967 51.5511
rfemur 2.35386 8.36622 23.9263
rtibia 38.8893
rfoot 27.4647 -17.9511
rtoes 8.35619
lfemur 6.94263 -0.374118 -23.7714
ltibia 24.7442
lfoot 25.4257 6.71222
ltoes -13.5314
225
root 0.068105 26.3632 -0.98088 1.94185 -3.38599 1.08788
lowerback -4.12703 1.52264 2.07046
upperback -4.58128 1.98055 -0.0413189
thorax -2.3279 0.930169 -1.16037
lowerneck -11.6343 -1.49877 -4.98411
upperneck 8.30696 -1.83812 5.82714
head 4.48645 -0.712037 2.48076
rclavicle -1.76421e-014 -4.77083e-015
rhumerus 1.22181 9.18789 -69.6947
rradius 40.5099
rwrist 19.3163
rhand -19.7842 -0.626233
rfingers 7.12502
rthumb 6.54819 -30.505
lclavicle -1.76421e-014 -4.77083e-015
lhumerus -20.9554 18.862 61.7505
lradius 45.2057
lwrist -7.66825
lhand -24.3415 22.5662
lfingers 7.12502
lthumb 2.14757 52.5351
rfemur 2.22052 8.56663 24.2871
rtibia 37.3923
rfoot 27.0416 -18.3797
rtoes 9.20628
lfemur 6.03605 -0.530445 -23.25
ltibia 24.5955
lfoot 24.7061 7.10494
ltoes -13.0145
226
root 0.0734848 26.464 -0.826156 1.78862 -3.33632 0.866348
lowerback -3.16443 1.50336 2.29525
upperback -4.51476 1.97647 -0.042917
thorax -2.79104 0.9166 -1.31411
lowerneck -11.814 -1.58661 -4.97899
upperneck 8.2059 -1.96206 5.97588
head 4.49363 -0.761356 2.51637
rclavicle -6.95746e-016 1.64991e-014
rhumerus -0.303964 8.31452 -69.9486
rradius 40.3018
rwrist 19.1058
rhand -20.7745 -0.971555
rfingers 7.12502
rthumb 5.59208 -30.8778
lclavicle -6.95746e-016 1.64991e-014
lhumerus -22.6857 20.0375 60.8703
lradius 42.5028
lwrist -7.26952
lhand -24.0358 23.5092
lfingers 7.12502
lthumb 2.44278 53.475
rfemur 2.09809 8.82208 24.5011
rtibia 35.9931
rfoot 26.5281 -18.7423
rtoes 8.94505
lfemur 5.19516 -0.627866 -22.8305
ltibia 24.4965
lfoot 24.1165 7.66732
ltoes -11.1867
227
root 0.0729239 26.5406 -0.684373 1.49381 -3.3862 0.617079
lowerback -1.98834 1.4928 2.36879
upperback -4.35175 1.99571 0.0395358
thorax -3.28268 0.920334 -1.30162
lowerneck -12.0424 -1.64302 -4.95073
upperneck 8.00839 -2.03244 6.04271
head 4.47511 -0.788248 2.52608
rclavicle 2.5842e-015 -9.93923e-016
rhumerus -1.65061 7.76971 -70.0106
rradius 40.0254
rwrist 18.4549
rhand -21.2958 -1.58588
rfingers 7.12502
rthumb 5.08873 -31.5048
lclavicle 2.5842e-015 -9.93923e-016
lhumerus -24.3054 20.9892 60.0414
lradius 39.6495
lwrist -6.76586
lhand -23.7433 24.1429
lfingers 7.12502
lthumb 2.72522 54.1052
rfemur 2.01958 9.23341 24.7869
rtibia 34.7275
rfoot 25.5904 -19.2878
rtoes 8.42587
lfemur 4.53495 -0.671091 -22.3491
ltibia 24.2855
lfoot 24.1335 7.86624
ltoes -9.94135
228
root 0.0726014 26.6028 -0.539634 1.10997 -3.43864 0.586647
lowerback -0.80669 1.46947 2.22744
upperback -4.14373 1.99373 0.022152
thorax -3.73699 0.919294 -1.27144
lowerneck -12.0967 -1.66424 -4.73575
upperneck 7.70184 -2.08256 6.04924
head 4.39079 -0.806542 2.48806
rclavicle -9.61621e-015 5.1684e-015
rhumerus -2.8894 7.55477 -70.0652
rradius 39.4393
rwrist 17.6766
rhand -21.563 -2.05713
rfingers 7.12502
rthumb 4.83074 -31.9821
lclavicle -9.61621e-015 5.1684e-015
lhumerus -25.8104 21.5596 59.1872
lradius 36.7363
lwrist -6.21217
lhand -23.3961 24.4563
lfingers 7.12502
lthumb 3.06055 54.4141
rfemur 1.95795 9.73078 24.8573
rtibia 33.6236
rfoot 24.6822 -19.4245
rtoes 7.41917
lfemur 4.05516 -0.828047 -22.1293
ltibia 23.901
lfoot 24.5917 6.91275
ltoes -10.8773
229
root 0.0736707 26.6596 -0.388655 0.758213 -3.46031 0.745019
lowerback 0.280206 1.46173 1.93786
upperback -3.94797 2.00047 -0.0526234
thorax -4.1548 0.927216 -1.21547
lowerneck -12.1519 -1.71832 -4.82264
upperneck 7.4859 -2.1584 6.3238
head 4.34227 -0.830508 2.5813
rclavicle 2.36057e-014 -8.54774e-015
rhumerus -4.24991 7.39663 -70.0764
rradius 38.8438
rwrist 17.215
rhand -21.5311 -2.26088
rfingers 7.12502
rthumb 4.86158 -32.1851
lclavicle 2.36057e-014 -8.54774e-015
lhumerus -27.2498 21.9063 58.4202
lradius 33.812
lwrist -5.81235
lhand -22.3778 25.0622
lfingers 7.12502
lthumb 4.04399 55.0036
rfemur 1.84109 10.2816 24.6908
rtibia 32.6033
rfoot 23.8211 -19.1914
rtoes 6.73663
lfemur 3.58853 -1.01632 -22.1145
ltibia 23.4291
lfoot 25.0438 6.00138
ltoes -11.2858
230
root 0.0753994 26.7049 -0.239635 0.437097 -3.45337 0.771217
lowerback 1.32664 1.46731 1.78311
upperback -3.7176 2.02386 -0.0599936
thorax -4.51287 0.94119 -1.1648
lowerneck -12.3244 -1.84739 -5.02679
upperneck 7.31955 -2.3057 6.53646
head 4.33319 -0.894484 2.66887
rclavicle 1.95554e-014 1.59028e-014
rhumerus -5.53871 7.19358 -70.0034
rradius 38.1692
rwrist 17.0541
rhand -21.6645 -2.27312
rfingers 7.12502
rthumb 4.73275 -32.2003
lclavicle 1.95554e-014 1.59028e-014
lhumerus -28.5198 22.1514 57.8072
lradius 30.7814
lwrist -5.95063
lhand -21.0651 26.0837
lfingers 7.12502
lthumb 5.31149 55.9971
rfemur 1.68874 10.8324 24.6274
rtibia 31.6465
rfoot 23.2568 -18.6223
rtoes 6.25675
lfemur 3.13098 -1.15927 -21.9338
ltibia 22.9259
lfoot 25.4306 5.57082
ltoes -10.5312
231
root 0.0808552 26.7403 -0.0915652 0.28417 -3.34814 0.655253
lowerback 2.18285 1.43411 1.82465
upperback -3.52058 1.99833 -0.044214
thorax -4.79465 0.924922 -1.19249
lowerneck -12.3895 -1.94406 -5.00575
upperneck 7.12634 -2.42395 6.50048
head 4.2909 -0.954258 2.64452
rclavicle -1.73191e-014 -4.37326e-015
rhumerus -6.76449 7.14881 -69.9477
rradius 37.4109
rwrist 17.1001
rhand -21.8412 -2.03932
rfingers 7.12502
rthumb 4.56214 -31.9702
lclavicle -1.73191e-014 -4.37326e-015
lhumerus -29.723 22.0654 57.3622
lradius 27.7613
lwrist -6.37478
lhand -20.4477 26.7729
lfingers 7.12502
lthumb 5.9076 56.6706
rfemur 1.29771 11.2378 24.6517
rtibia 30.7163
rfoot 23.2918 -17.5413
rtoes 4.43716
lfemur 2.48694 -1.30679 -21.5913
ltibia 22.4888
lfoot 25.955 4.84345
ltoes -10.677
